<svg width="256" height="256" viewBox="0 0 256 256" fill="none" xmlns="http://www.w3.org/2000/svg">
<path fill-rule="evenodd" clip-rule="evenodd" d="M170.666 0C123.538 0 85.333 38.205 85.333 85.3333C38.2049 85.3335 0 123.539 0 170.667C0 217.795 38.2051 256 85.3333 256C132.462 256 170.667 217.795 170.667 170.667C217.795 170.666 256 132.461 256 85.3333C256 38.205 217.795 0 170.666 0ZM170.667 170.667C170.667 170.667 170.666 170.667 170.666 170.667C123.538 170.667 85.333 132.462 85.333 85.3333C85.3331 85.3333 85.3332 85.3334 85.3333 85.3334C132.462 85.3334 170.667 123.538 170.667 170.667Z" fill="url(#paint0_linear_101_18)"/>
<defs>
<linearGradient id="paint0_linear_101_18" x1="128" y1="0" x2="128" y2="256" gradientUnits="userSpaceOnUse">
<stop stop-color="#59FFA1"/>
<stop offset="0.385417" stop-color="#A490FF"/>
<stop offset="0.703125" stop-color="#2EABFF"/>
<stop offset="1" stop-color="#59FFA1"/>
</linearGradient>
</defs>
</svg>
