<svg width="512" height="512" viewBox="0 0 512 512" fill="none" xmlns="http://www.w3.org/2000/svg">
<path fill-rule="evenodd" clip-rule="evenodd" d="M341.333 0C247.077 0 170.666 76.4101 170.666 170.667C76.41 170.667 0 247.077 0 341.333C0 435.59 76.4104 512 170.667 512C264.923 512 341.334 435.59 341.334 341.333C435.59 341.333 512 264.923 512 170.667C512 76.4101 435.59 0 341.333 0ZM341.334 341.333C341.334 341.333 341.333 341.333 341.333 341.333C247.077 341.333 170.666 264.923 170.666 170.667C170.666 170.667 170.667 170.667 170.667 170.667C264.923 170.667 341.334 247.077 341.334 341.333Z" fill="url(#paint0_linear_101_24)"/>
<defs>
<linearGradient id="paint0_linear_101_24" x1="256" y1="0" x2="256" y2="512" gradientUnits="userSpaceOnUse">
<stop stop-color="#59FFA1"/>
<stop offset="0.385417" stop-color="#A490FF"/>
<stop offset="0.703125" stop-color="#2EABFF"/>
<stop offset="1" stop-color="#59FFA1"/>
</linearGradient>
</defs>
</svg>
