<svg width="1424" height="1424" viewBox="0 0 1424 1424" fill="none" xmlns="http://www.w3.org/2000/svg">
<g filter="url(#filter0_d_102_33)">
<path fill-rule="evenodd" clip-rule="evenodd" d="M882.667 200C694.153 200 541.333 352.82 541.333 541.333C352.82 541.333 200 694.154 200 882.667C200 1071.18 352.82 1224 541.333 1224C729.846 1224 882.667 1071.18 882.667 882.667C1071.18 882.667 1224 729.846 1224 541.333C1224 352.82 1071.18 200 882.667 200ZM541.333 541.333C729.846 541.333 882.667 694.154 882.667 882.667C694.153 882.667 541.333 729.846 541.333 541.333Z" fill="url(#paint0_linear_102_33)"/>
</g>
<defs>
<filter id="filter0_d_102_33" x="0" y="0" width="1424" height="1424" filterUnits="userSpaceOnUse" color-interpolation-filters="sRGB">
<feFlood flood-opacity="0" result="BackgroundImageFix"/>
<feColorMatrix in="SourceAlpha" type="matrix" values="0 0 0 0 0 0 0 0 0 0 0 0 0 0 0 0 0 0 127 0" result="hardAlpha"/>
<feOffset/>
<feGaussianBlur stdDeviation="100"/>
<feComposite in2="hardAlpha" operator="out"/>
<feColorMatrix type="matrix" values="0 0 0 0 0.180392 0 0 0 0 0.670588 0 0 0 0 1 0 0 0 0.4 0"/>
<feBlend mode="normal" in2="BackgroundImageFix" result="effect1_dropShadow_102_33"/>
<feBlend mode="normal" in="SourceGraphic" in2="effect1_dropShadow_102_33" result="shape"/>
</filter>
<linearGradient id="paint0_linear_102_33" x1="712" y1="200" x2="712" y2="1224" gradientUnits="userSpaceOnUse">
<stop stop-color="#59FFA1"/>
<stop offset="0.385417" stop-color="#A490FF"/>
<stop offset="0.703125" stop-color="#2EABFF"/>
<stop offset="1" stop-color="#59FFA1"/>
</linearGradient>
</defs>
</svg>
